# xmcd CD database file
# Copyright (C) 1995-1998 Ti Kan
#
# Track frame offsets:
#	150
#	16222
#	27982
#	42965
#	62295
#	74777
#	90305
#	108340
#	123422
#	145232
#	159002
#	180115
#	199175
#
# Disc length: 2890 seconds
#
# Revision: 1
# Processed by: cddbd v1.4b41PL1 Copyright (c) Steve Scherf et al.
# Submitted via: CDex 1.30
#
DISCID=9f0b480d
DTITLE=Dallas Wayne and The Dimlights - Part Of The Crew
DYEAR=1994
DGENRE=Country
TTITLE0=I'LL WALK BEFORE I'LL CRAWL
TTITLE1=GOODBYE TEXAS
TTITLE2=JUST LIKE THAT
TTITLE3=6 PACK OF LIES
TTITLE4=HONKY TONK HISTORY
TTITLE5=MISSISSIPPI
TTITLE6=IF HEARTS COULD TELL TIME
TTITLE7=LONESOME TOO
TTITLE8=DON'T WANT FOR NOTHIN'
TTITLE9=BUSY NOT CRYIN'
TTITLE10=WHISKEY AND WATER
TTITLE11=LOVE AND AFFECTION
TTITLE12=PART OF THE CREW
EXTD=\nYEAR: 1994  ID3G:   2
EXTT0=
EXTT1=
EXTT2=
EXTT3=
EXTT4=
EXTT5=
EXTT6=
EXTT7=
EXTT8=
EXTT9=
EXTT10=
EXTT11=
EXTT12=
PLAYORDER=
